<svg id="_3ES-logo-rgb-text-updated" data-name="3ES-logo-rgb-text-updated" xmlns="http://www.w3.org/2000/svg" xmlns:xlink="http://www.w3.org/1999/xlink" width="96" height="96" viewBox="0 0 96 96">
  <defs>
    <clipPath id="clip-path">
      <rect id="Rectangle_95" data-name="Rectangle 95" width="96" height="96"/>
    </clipPath>
  </defs>
  <rect id="Rectangle_94" data-name="Rectangle 94" width="96" height="96" fill="#1d2939"/>
  <g id="Group_99" data-name="Group 99">
    <g id="Group_94" data-name="Group 94" clip-path="url(#clip-path)">
      <path id="Path_158" data-name="Path 158" d="M151.923,267.918a10.614,10.614,0,0,1-3.734,8.261,12.639,12.639,0,0,1-8.671,3.324,9.735,9.735,0,0,1-3.6-.645q-2.084-.917-2.084-2.6a1.7,1.7,0,0,1,.583-1.253,1.789,1.789,0,0,1,1.253-.558,6.8,6.8,0,0,1,3.076,1.414,6.881,6.881,0,0,0,3.622,1.414,5.218,5.218,0,0,0,4.267-2.084,7.19,7.19,0,0,0,1.538-4.614,7.859,7.859,0,0,0-2.295-6.053,9.16,9.16,0,0,0-6.239-2.233v-.819a9.624,9.624,0,0,0,5.334-2.282A6.576,6.576,0,0,0,147.309,254a5.875,5.875,0,0,0-1.451-3.932,4.584,4.584,0,0,0-3.634-1.7q-3.349,0-5.78,4.069l-.769-.471a10.507,10.507,0,0,1,2.952-4.813,7.257,7.257,0,0,1,5.111-2.034,7.684,7.684,0,0,1,5.3,2.01,6.423,6.423,0,0,1,2.245,4.986q0,3.821-4.59,7.542,5.234,2.779,5.235,8.261" transform="translate(-118.577 -217.168)" fill="#fff"/>
    </g>
    <g id="Group_95" data-name="Group 95" clip-path="url(#clip-path)">
      <path id="Path_159" data-name="Path 159" d="M294.365,340.7h8.014c2.54,0,4.065.8,4.936,2.468.508.943.653,1.887.653,4.645h1.307V330.176h-1.307a12.332,12.332,0,0,1-.435,4.137c-.8,2.323-2.1,3.121-5.153,3.121H292.99c.026.039.053.078.078.117a9.931,9.931,0,0,1,1.3,3.149" transform="translate(-259.581 -292.526)" fill="#fff"/>
    </g>
    <g id="Group_96" data-name="Group 96" clip-path="url(#clip-path)">
      <path id="Path_160" data-name="Path 160" d="M206.956,229.157l-4.868-2.808c-3.931-2.247-6.115-4.868-6.115-7.364,0-3.307,2.746-5.679,6.552-5.679a8.037,8.037,0,0,1,5.991,2.371c1.623,1.685,2.683,3.807,4.119,8.549h1.123V211h-1.31c-.437,1.061-.936,1.5-1.747,1.5-.562,0-.624,0-3.245-.874a16.573,16.573,0,0,0-5.741-1.061c-6.552,0-11.045,4.431-11.045,10.8,0,4.493,2.371,7.738,8.175,11.045l4.93,2.808a21.312,21.312,0,0,1,3.994,3.183c1.81,1.81,2.5,3.307,2.5,5.242,0,3.807-3.183,6.74-7.239,6.74a10.526,10.526,0,0,1-8.549-4.868c-.229-.337-.43-.666-.614-1l1.369-4.148-1.176-.514c-3.087,7.349-6.247,10.525-13.743,10.525H172c-2.058,0-2.97-.306-3.558-.968a3.944,3.944,0,0,1-.8-1.944h0c-2.755,2.453-6.929,3.449-10.624,3.529a8.376,8.376,0,0,1-2.359.322l-1.617.073v1.671h50.977c7.177,0,12.356-4.805,12.356-11.482,0-4.867-2.933-8.674-9.423-12.418" transform="translate(-135.595 -186.551)" fill="#00b297"/>
    </g>
    <g id="Group_97" data-name="Group 97" clip-path="url(#clip-path)">
      <path id="Path_161" data-name="Path 161" d="M158.915,212.764c5.081,0,7.041.508,8.637,2.25,1.161,1.234,1.742,2.758,2.177,6.024l1.234-.145-.726-10.96h-36.8v1.306l1.6.073c2.224.042,3.548.32,4.272,1.635a8.941,8.941,0,0,1,4.076-.945,9.443,9.443,0,0,1,4.678,1.183v-.421Z" transform="translate(-118.222 -185.995)" fill="#00b297"/>
    </g>
    <g id="Group_98" data-name="Group 98" clip-path="url(#clip-path)">
      <path id="Path_162" data-name="Path 162" d="M468.657,185.852a3.4,3.4,0,0,0,2.694-3.233,3.06,3.06,0,0,1-.919.159,1.712,1.712,0,0,1,.064-3.423c1.268,0,2.219,1.2,2.219,2.789,0,2.155-1.585,3.835-4.057,4.216Z" transform="translate(-415.216 -158.902)" fill="#00b297"/>
    </g>
  </g>
  <g id="Group_100" data-name="Group 100" transform="translate(17.422 68.52)">
    <path id="Path_163" data-name="Path 163" d="M155.913,602.27a4.819,4.819,0,0,1,1.06-.1,1.482,1.482,0,0,1,1.122.389,1.512,1.512,0,0,1,.372,1.053,1.661,1.661,0,0,1-.327,1.082,1.482,1.482,0,0,1-1.2.509,1.559,1.559,0,0,1-.338-.028v1.8h-.688Zm.688,2.219a1.125,1.125,0,0,0,.338.035.784.784,0,0,0,.834-.877.721.721,0,0,0-.772-.813,1.54,1.54,0,0,0-.4.042Z" transform="translate(-155.913 -602.137)" fill="#fcfcfc"/>
    <path id="Path_164" data-name="Path 164" d="M184.421,602.27a5.275,5.275,0,0,1,1.048-.1,1.51,1.51,0,0,1,1.172.382,1.361,1.361,0,0,1,.327.954,1.273,1.273,0,0,1-.688,1.195v.021a1.22,1.22,0,0,1,.53.919,11.43,11.43,0,0,0,.3,1.329h-.716a8.069,8.069,0,0,1-.254-1.124c-.107-.622-.287-.82-.682-.834h-.349v1.958h-.688Zm.688,2.107h.411a.723.723,0,0,0,.761-.785.679.679,0,0,0-.744-.763,1.594,1.594,0,0,0-.428.042Z" transform="translate(-181.27 -602.137)" fill="#fcfcfc"/>
    <path id="Path_165" data-name="Path 165" d="M212.289,605.846l-.327,1.352h-.716l1.217-4.771h.885l1.234,4.771h-.744l-.344-1.352Zm1.088-.658-.3-1.175c-.073-.29-.135-.616-.192-.892h-.011c-.056.276-.113.609-.18.892l-.293,1.175Z" transform="translate(-205.13 -602.365)" fill="#fcfcfc"/>
    <path id="Path_166" data-name="Path 166" d="M246.3,606.545a1.988,1.988,0,0,1-.981.211c-1.206,0-1.939-.943-1.939-2.385,0-1.562.868-2.5,2.029-2.5a1.815,1.815,0,0,1,.924.211l-.152.689a1.536,1.536,0,0,0-.744-.183c-.772,0-1.33.605-1.33,1.745,0,1.041.49,1.71,1.325,1.71a1.608,1.608,0,0,0,.755-.176Z" transform="translate(-233.709 -601.866)" fill="#fcfcfc"/>
    <path id="Path_167" data-name="Path 167" d="M274.037,603.156h-1.082v-.729h2.869v.729H274.73V607.2h-.693v-4.042Z" transform="translate(-260.019 -602.365)" fill="#fcfcfc"/>
    <path id="Path_168" data-name="Path 168" d="M303.636,602.427V607.2h-.693v-4.771Z" transform="translate(-286.693 -602.365)" fill="#fcfcfc"/>
    <path id="Path_169" data-name="Path 169" d="M317.541,606.545a1.988,1.988,0,0,1-.981.211c-1.206,0-1.939-.943-1.939-2.385,0-1.562.868-2.5,2.029-2.5a1.815,1.815,0,0,1,.924.211l-.152.689a1.536,1.536,0,0,0-.744-.183c-.772,0-1.33.605-1.33,1.745,0,1.041.49,1.71,1.325,1.71a1.608,1.608,0,0,0,.755-.176Z" transform="translate(-297.081 -601.866)" fill="#fcfcfc"/>
    <path id="Path_170" data-name="Path 170" d="M348.518,605.082h-1.432v1.4h1.6v.715h-2.294v-4.771H348.6v.715h-1.516v1.232h1.432v.708Z" transform="translate(-325.341 -602.365)" fill="#fcfcfc"/>
    <path id="Path_171" data-name="Path 171" d="M385.651,605.252c-.023-.616-.051-1.359-.045-2h-.017c-.124.581-.282,1.225-.451,1.826l-.552,2.067h-.535l-.507-2.039c-.147-.609-.282-1.26-.383-1.855h-.011c-.017.623-.039,1.381-.068,2.032L383,607.2h-.648l.254-4.771h.913l.5,1.918c.135.559.254,1.126.349,1.657h.017c.1-.517.231-1.1.378-1.664l.524-1.911h.9l.22,4.771h-.676Z" transform="translate(-357.322 -602.365)" fill="#fcfcfc"/>
    <path id="Path_172" data-name="Path 172" d="M423.58,605.846l-.327,1.352h-.716l1.217-4.771h.885l1.234,4.771h-.744l-.344-1.352Zm1.088-.658-.3-1.175c-.073-.29-.135-.616-.192-.892h-.011c-.056.276-.113.609-.18.892l-.293,1.175Z" transform="translate(-393.069 -602.365)" fill="#fcfcfc"/>
    <path id="Path_173" data-name="Path 173" d="M457.522,607.2v-4.771h.789l.981,2.046a14.627,14.627,0,0,1,.648,1.6h.011c-.045-.637-.062-1.253-.062-1.982v-1.664h.642V607.2h-.716l-.992-2.1c-.242-.524-.5-1.112-.682-1.65l-.017.007c.028.616.034,1.246.034,2.032V607.2Z" transform="translate(-424.187 -602.365)" fill="#fcfcfc"/>
    <path id="Path_174" data-name="Path 174" d="M490.491,605.846l-.327,1.352h-.716l1.217-4.771h.885l1.234,4.771h-.744l-.344-1.352Zm1.088-.658-.3-1.175c-.073-.29-.135-.616-.192-.892h-.011c-.056.276-.113.609-.18.892l-.293,1.175Z" transform="translate(-452.585 -602.365)" fill="#fcfcfc"/>
    <path id="Path_175" data-name="Path 175" d="M524.817,606.651a3.1,3.1,0,0,1-1.223.268,1.815,1.815,0,0,1-1.488-.635,2.7,2.7,0,0,1-.53-1.748,2.177,2.177,0,0,1,2.114-2.468,2.086,2.086,0,0,1,1.009.226l-.152.7a1.7,1.7,0,0,0-.862-.2c-.812,0-1.381.6-1.381,1.706,0,1.079.53,1.72,1.319,1.72a1.093,1.093,0,0,0,.524-.1v-1.184h-.671v-.684h1.341v2.4Z" transform="translate(-481.162 -602.047)" fill="#fcfcfc"/>
    <path id="Path_176" data-name="Path 176" d="M559.453,605.082h-1.432v1.4h1.6v.715h-2.294v-4.771h2.209v.715h-1.516v1.232h1.432Z" transform="translate(-512.963 -602.365)" fill="#fcfcfc"/>
    <path id="Path_177" data-name="Path 177" d="M586.028,605.252c-.023-.616-.051-1.359-.045-2h-.017c-.124.581-.282,1.225-.451,1.826l-.552,2.067h-.535l-.507-2.039c-.147-.609-.282-1.26-.383-1.855h-.011c-.017.623-.039,1.381-.068,2.032l-.085,1.918h-.648l.254-4.771h.913l.5,1.918c.135.559.254,1.126.349,1.657h.017c.1-.517.231-1.1.378-1.664l.524-1.911h.9l.22,4.771H586.1Z" transform="translate(-535.553 -602.365)" fill="#fcfcfc"/>
    <path id="Path_178" data-name="Path 178" d="M627.895,605.082h-1.432v1.4h1.6v.715H625.77v-4.771h2.209v.715h-1.516v1.232h1.432Z" transform="translate(-573.84 -602.365)" fill="#fcfcfc"/>
    <path id="Path_179" data-name="Path 179" d="M652.034,607.2v-4.771h.789l.981,2.046a14.627,14.627,0,0,1,.648,1.6h.011c-.045-.637-.062-1.253-.062-1.982v-1.664h.642V607.2h-.716l-.992-2.1c-.242-.524-.5-1.112-.682-1.65l-.017.007c.028.616.034,1.246.034,2.032V607.2Z" transform="translate(-597.202 -602.365)" fill="#fcfcfc"/>
    <path id="Path_180" data-name="Path 180" d="M684.379,603.156H683.3v-.729h2.869v.729h-1.093V607.2h-.693Z" transform="translate(-625.009 -602.365)" fill="#fcfcfc"/>
  </g>
</svg>
